<svg xmlns="http://www.w3.org/2000/svg" width="246" height="46" viewBox="0 0 246 46">
    <g fill="none" fill-rule="evenodd">
        <path fill="#5FB881" d="M15.224 44.624l13.64-23.311 9.343 19.116A23.1 23.1 0 0 1 23.12 46c-2.773 0-5.432-.486-7.896-1.376zm-1.971-.818C6.119 40.452.988 33.575.128 25.431l19.538 7.382-6.413 10.993zM0 23.147V23C0 11.81 8.032 2.488 18.673.425l9.047 18.577-6.977 11.967L0 23.147zM20.871.107c.74-.07 1.49-.107 2.25-.107 12.768 0 23.12 10.298 23.12 23 0 6.174-2.446 11.78-6.425 15.91L20.87.108z"/>
        <path fill="#CF2B66" d="M70.43 7.36h.384c1.715 0 3.401.427 5.056 1.281.527.295 1.046.637 1.558 1.025.256.186.662.543 1.22 1.071.586.652 1.007 1.18 1.263 1.584.226.342.43.683.61 1.025l-3.928 2.003c-.12-.28-.406-.683-.858-1.211-1.385-1.522-3.1-2.283-5.147-2.283-2.017 0-3.65.614-4.899 1.84-.466.528-.76.947-.88 1.258a4.847 4.847 0 0 0-.542 2.213v.163c0 1.071.384 1.902 1.152 2.492.346.28.677.504.993.675.782.435 1.941.877 3.476 1.328 1.144.341 2.521.69 4.131 1.048.903.264 1.656.543 2.258.838.587.295 1.196.691 1.828 1.188a10.71 10.71 0 0 1 1.468 1.537c1.189 1.662 1.783 3.502 1.783 5.52v.117c0 1.987-.58 3.874-1.738 5.66-.196.326-.55.768-1.061 1.327-.692.652-1.264 1.118-1.716 1.398-.481.31-1.008.59-1.58.838a12.224 12.224 0 0 1-4.899 1.025c-2.603 0-4.989-.792-7.156-2.376-.391-.31-.797-.667-1.219-1.071-.602-.621-1.023-1.103-1.264-1.444a14.334 14.334 0 0 1-1.084-1.724c-.27-.528-.42-.846-.451-.955l3.95-1.886c.241.559.572 1.133.994 1.723.195.295.496.645.903 1.048.587.544 1.06.917 1.422 1.118 1.219.7 2.498 1.049 3.838 1.049h.158c1.339 0 2.618-.342 3.837-1.025a7.052 7.052 0 0 0 1.039-.792c.406-.42.707-.8.903-1.141.511-.917.767-1.864.767-2.842 0-1.584-.647-2.857-1.941-3.82a6.15 6.15 0 0 0-1.016-.559c-.527-.248-1.347-.481-2.46-.698-3.161-.746-5.464-1.507-6.908-2.283-3.191-1.63-4.786-4.1-4.786-7.407 0-2.204.7-4.207 2.1-6.009a10.05 10.05 0 0 1 1.444-1.467c.617-.481 1.159-.846 1.625-1.095.512-.28 1.129-.535 1.851-.768a12.044 12.044 0 0 1 3.522-.536zm30.685.396h.068c4.364 0 8.194 1.762 11.49 5.287 2.92 3.447 4.38 7.368 4.38 11.762 0 4.814-1.724 9.014-5.17 12.6-3.206 2.966-6.772 4.45-10.7 4.45-3.943 0-7.495-1.453-10.655-4.356-1.4-1.49-2.303-2.64-2.71-3.447a17.643 17.643 0 0 1-2.55-9.224v-.093c0-4.813 1.745-9.021 5.237-12.624l1.512-1.28c2.815-2.05 5.847-3.075 9.098-3.075zM89.602 24.782c0 3.68 1.354 6.87 4.063 9.572 2.228 1.988 4.733 2.982 7.518 2.982 3.612 0 6.66-1.646 9.142-4.938 1.565-2.36 2.348-4.829 2.348-7.407v-.302c0-3.184-1.076-6.056-3.228-8.618-2.408-2.562-5.162-3.843-8.262-3.843-3.477 0-6.457 1.53-8.94 4.588-1.76 2.454-2.641 5.109-2.641 7.966zm35.56-17.026c.076 0 .227.497.452 1.49.256.84 2.22 8.098 5.892 21.778l.61 2.19h.045l8.104-23.688c.376-1.118.595-1.708.655-1.77h2.957c.045 0 .233.512.565 1.537l8.217 23.92h.022l6.863-25.434.045-.023h4.673l.022.023h.023l-9.165 33.027c-.166.699-.271 1.048-.316 1.048h-3.793c-.075-.093-.97-2.686-2.686-7.78-.422-1.133-2.393-6.885-5.915-17.258-.105.155-.376.909-.812 2.26l-7.834 22.778h-3.815c-.045 0-.24-.683-.587-2.05L120.467 7.78l.023-.023h4.673zm44.456 0h4.312l.023.023v34.052l-.023.023h-4.312l-.022-.023V7.779l.022-.023zm12.174 0h4.696l15.847 24.362 1.445 2.26h.022V7.826l.068-.07h4.244l.068.07v33.958l-.068.07h-4.696c-.812-1.18-3.815-5.807-9.007-13.881l-8.352-12.764v26.575l-.046.07h-4.22l-.069-.07V7.826l.068-.07zm48.18 0h.068c4.199 0 7.9 1.63 11.106 4.891 1.144 1.258 2.01 2.446 2.597 3.564l.248.512c-2.182 1.18-3.477 1.863-3.883 2.05-.376-.808-.94-1.654-1.693-2.54-.933-1.008-1.633-1.645-2.1-1.909-1.97-1.397-4.063-2.096-6.275-2.096-3.477 0-6.456 1.53-8.94 4.588-1.76 2.454-2.64 5.109-2.64 7.966 0 3.68 1.354 6.87 4.063 9.572 2.227 1.988 4.733 2.982 7.517 2.982 3.19 0 5.982-1.32 8.375-3.96 1.415-1.723 2.333-3.532 2.754-5.427h-8.307l-.045-.07v-4.355l.022-.023v-.047l9.007-.023h4.086l.068.07c-.105 2.375-.248 3.936-.429 4.681-.497 2.407-1.257 4.395-2.28 5.963-1.911 3.136-4.598 5.388-8.059 6.754-1.776.637-3.522.955-5.237.955-3.883 0-7.412-1.444-10.588-4.332-3.521-3.587-5.282-7.818-5.282-12.694v-.093c0-4.813 1.746-9.021 5.237-12.624.843-.745 1.37-1.18 1.58-1.304 2.74-2.034 5.75-3.051 9.03-3.051z"/>
    </g>
</svg>
